<svg xmlns="http://www.w3.org/2000/svg" version="1.1" xmlns:xlink="http://www.w3.org/1999/xlink" xmlns:svgjs="http://svgjs.dev/svgjs" width="150" height="75" preserveAspectRatio="none" viewBox="0 0 150 75"><g mask="url(&quot;#SvgjsMask1128&quot;)" fill="none"><rect width="150" height="75" x="0" y="0" fill="rgba(204, 168, 216, 1)"></rect><path d="M0 40.59L10 36.71L20 34.8L30 38.98L40 42.5L50 40.44L60 43.58L70 40.59L80 49.39L90 43.45L100 48.16L110 49.23L120 47.88L130 46.45L140 38.52L150 37.19" stroke="rgba(191, 0, 255, 1)" stroke-width="2"></path><path d="M0 40.59L10 36.71L20 34.8L30 38.98L40 42.5L50 40.44L60 43.58L70 40.59L80 49.39L90 43.45L100 48.16L110 49.23L120 47.88L130 46.45L140 38.52L150 37.19L150 75L0 75z" fill="url(&quot;#SvgjsLinearGradient1129&quot;)"></path></g><defs><mask id="SvgjsMask1128"><rect width="150" height="75" fill="#ffffff"></rect></mask><linearGradient x1="50%" y1="0%" x2="50%" y2="100%" id="SvgjsLinearGradient1129"><stop stop-opacity="0.65" stop-color="rgba(191, 0, 255, 1)" offset="0"></stop><stop stop-opacity="0" stop-color="#f7e0ff" offset="0.8"></stop></linearGradient></defs></svg>