<?xml version="1.0" standalone="no"?><svg xmlns:xlink="http://www.w3.org/1999/xlink" xmlns="http://www.w3.org/2000/svg" viewBox="0 0 1000 333.33333333333337" preserveAspectRatio="xMaxYMax slice"><g transform="scale(1.4442518775274409)"><rect x="0" y="0" width="692.4" height="346.2" fill="#ffffff"/><rect x="0" y="115.4" width="115.4" height="115.4" fill="#dfc8e7"/><polygon points="115.4,115.4 115.4,230.8 0,230.8" fill="#fcf2dc"/><rect x="115.4" y="115.4" width="115.4" height="115.4" fill="#dfc9e7"/><polygon points="115.4,115.4 230.8,115.4 115.4,230.8" fill="#d9efef"/><rect x="577" y="115.4" width="115.4" height="115.4" fill="#fae8bf"/><polygon points="692.4,115.4 692.4,230.8 577,230.8" fill="#e1f2f2"/><rect x="0" y="230.8" width="115.4" height="115.4" fill="#b4dfe0"/><polygon points="0,230.8 115.4,230.8 115.4,346.20000000000005" fill="#85cbcc"/><rect x="115.4" y="230.8" width="115.4" height="115.4" fill="#c2e8e9"/><path d="M 115.4 230.8 A 115.4 115.4 0 0 0 230.8 346.20000000000005 L 230.8 230.8" fill="#fcf1d8"/><rect x="346.2" y="230.8" width="115.4" height="115.4" fill="#acdcdc"/><path d="M 346.2 346.20000000000005 A 115.4 115.4 0 0 1  461.6 230.8 L 346.2 346.20000000000005 A 115.4 115.4 0 0 0 461.6 230.8" fill="#fae9c1"/><rect x="461.6" y="230.8" width="115.4" height="115.4" fill="#f0f8e2"/><path d="M 461.6 230.8 A 115.4 115.4 0 0 1 577 346.20000000000005 L 461.6 346.20000000000005" fill="#e8d8ed"/><rect x="577" y="230.8" width="115.4" height="115.4" fill="#c7e7e8"/><path d="M 577 230.8 A 115.4 115.4 0 0 1 692.4 346.20000000000005 L 577 346.20000000000005" fill="#d0afdb"/></g></svg>