<?xml version="1.0" standalone="no"?><svg xmlns:xlink="http://www.w3.org/1999/xlink" xmlns="http://www.w3.org/2000/svg" viewBox="0 0 1000 333.33333333333337" preserveAspectRatio="xMaxYMax slice"><g transform="scale(1.4442518775274409)"><rect x="0" y="0" width="692.4" height="346.2" fill="#ffffff"/><rect x="0" y="0" width="115.4" height="115.4" fill="#fcf2db"/><path d="M 0 0 A 115.4 115.4 0 0 1  115.4 115.4 L 0 0 A 115.4 115.4 0 0 0 115.4 115.4" fill="#b7e0e1"/><rect x="230.8" y="0" width="115.4" height="115.4" fill="#9dd5d6"/><polygon points="230.8,0 346.20000000000005,115.4 230.8,115.4" fill="#f8fcfc"/><rect x="461.59999999999997" y="0" width="115.39999999999999" height="115.39999999999999" fill="#ffffff"/><rect x="461.6" y="0" width="57.7" height="57.7" fill="#fae5b6"/><polygon points="519.3000000000001,0 519.3000000000001,57.7 461.6,57.7" fill="#ceecee"/><rect x="519.3" y="0" width="57.7" height="57.7" fill="#c8e8e8"/><polygon points="519.3,0 577,0 519.3,57.7" fill="#f4faea"/><rect x="461.6" y="57.7" width="57.7" height="57.7" fill="#ffffff"/><polygon points="461.6,57.7 519.3000000000001,57.7 519.3000000000001,115.4" fill="#dcc4e5"/><rect x="519.3" y="57.7" width="57.7" height="57.7" fill="#fbecca"/><polygon points="519.3,57.7 577,115.4 519.3,115.4" fill="#cfacda"/><rect x="577" y="0" width="115.39999999999999" height="115.39999999999999" fill="#ffffff"/><rect x="577" y="57.7" width="57.7" height="57.7" fill="#efe4f3"/><path d="M 577 57.7 A 57.7 57.7 0 0 1 634.7 115.4 L 577 115.4" fill="#d4ecad"/><rect x="634.7" y="57.7" width="57.7" height="57.7" fill="#cceced"/><path d="M 634.7 115.4 A 57.7 57.7 0 0 1  692.4000000000001 57.7 L 692.4000000000001 115.4" fill="#f3fbfb"/><rect x="115.39999999999999" y="115.39999999999999" width="115.39999999999999" height="115.39999999999999" fill="#ffffff"/><rect x="173.1" y="115.4" width="57.7" height="57.7" fill="#efe3f3"/><polygon points="173.1,115.4 230.8,173.10000000000002 173.1,173.10000000000002" fill="#a9dadb"/><rect x="115.4" y="173.1" width="57.7" height="57.7" fill="#daefb9"/><polygon points="115.4,173.1 173.10000000000002,173.1 115.4,230.8" fill="#fdfcfe"/><rect x="230.8" y="115.4" width="115.4" height="115.4" fill="#f9f4fa"/><polygon points="230.8,115.4 346.20000000000005,115.4 230.8,230.8" fill="#d5eff0"/><rect x="346.2" y="230.8" width="115.4" height="115.4" fill="#fef9ef"/><rect x="346.2" y="230.8" width="115.4" height="115.4" fill="#cdeced"/><rect x="461.6" y="230.8" width="115.4" height="115.4" fill="#abdfe1"/><polygon points="461.6,230.8 577,230.8 461.6,346.20000000000005" fill="#e3f5f5"/></g></svg>