<?xml version="1.0" standalone="no"?><svg xmlns:xlink="http://www.w3.org/1999/xlink" xmlns="http://www.w3.org/2000/svg" viewBox="0 0 1000 166.6669626998224" preserveAspectRatio="xMaxYMax slice"><g transform="scale(0.8880994671403197)"><rect x="0" y="0" width="1126" height="281.5" fill="#ffffff"/><polygon points="375.33,0 469.15999999999997,93.83 375.33,93.83" fill="#ff688c"/><path d="M 656.83 0 A 93.83 93.83 0 0 0 750.6600000000001 93.83 L 750.6600000000001 0" fill="#ff3f6d"/><path d="M 750.67 0 A 93.83 93.83 0 0 1 844.5 93.83 L 750.67 93.83" fill="#a2b2f3"/><path d="M 844.5 0 A 93.83 93.83 0 0 1  938.33 93.83 L 844.5 0 A 93.83 93.83 0 0 0 938.33 93.83" fill="#ff7596"/><polygon points="1032.17,0 1126,93.83 1032.17,93.83" fill="#4867e7"/><polygon points="0,93.83 93.83,187.66 0,187.66" fill="#ffa7bc"/><rect x="281.5" y="93.83333333333333" width="93.83333333333333" height="93.83333333333333" fill="#ffffff"/><polygon points="469.15999999999997,93.83 469.15999999999997,187.66 375.33,187.66" fill="#b8c4f6"/><polygon points="750.67,93.83 844.5,187.66 750.67,187.66" fill="#8398ef"/><path d="M 1032.17 93.83 A 93.83 93.83 0 0 1 1126 187.66 L 1032.17 187.66" fill="#ffd1dc"/><rect x="656.8333333333333" y="187.66666666666666" width="93.83333333333333" height="93.83333333333333" fill="#ffffff"/><path d="M 703.75 187.67 A 46.92 46.92 0 0 1 750.67 234.58999999999997 L 703.75 234.58999999999997" fill="#3557e5"/><rect x="844.5" y="187.67" width="93.83" height="93.83" fill="#ff7697"/><rect x="1032.17" y="187.67" width="93.83" height="93.83" fill="#ff6086"/></g></svg>