<?xml version="1.0" standalone="no"?><svg xmlns:xlink="http://www.w3.org/1999/xlink" xmlns="http://www.w3.org/2000/svg" viewBox="0 0 1000 166.6669626998224" preserveAspectRatio="xMaxYMax slice"><g transform="scale(0.8880994671403197)"><rect x="0" y="0" width="1126" height="281.5" fill="#ffffff"/><rect x="0" y="0" width="93.83" height="93.83" fill="#ffe6ec"/><path d="M 93.83 0 A 93.83 93.83 0 0 1 187.66 93.83 L 93.83 93.83" fill="#ff3767"/><polygon points="187.67,0 281.5,0 281.5,93.83" fill="#ff6e90"/><rect x="281.5" y="0" width="93.83333333333333" height="93.83333333333333" fill="#ffffff"/><path d="M 281.5 46.92 A 46.92 46.92 0 0 0 328.42 0 L 281.5 0" fill="#f5f7fe"/><path d="M 328.42 0 A 46.92 46.92 0 0 0 375.34000000000003 46.92 L 375.34000000000003 0" fill="#6d85ec"/><path d="M 281.5 46.92 A 46.92 46.92 0 0 1 328.42 93.84 L 281.5 93.84" fill="#c8d1f8"/><path d="M 328.42 93.84 A 46.92 46.92 0 0 1  375.34000000000003 46.92 L 375.34000000000003 93.84" fill="#c3cef7"/><polygon points="375.33,0 469.15999999999997,0 469.15999999999997,93.83" fill="#ff426f"/><rect x="469.16666666666663" y="0" width="93.83333333333333" height="93.83333333333333" fill="#ffffff"/><path d="M 469.17 0 A 46.92 46.92 0 0 1 516.09 46.92 L 469.17 46.92" fill="#ff7f9e"/><path d="M 516.08 46.92 A 46.92 46.92 0 0 1  563 0 L 563 46.92" fill="#eaedfc"/><path d="M 469.17 93.84 A 46.92 46.92 0 0 0 516.09 46.92 L 469.17 46.92" fill="#617cea"/><path d="M 516.08 46.92 A 46.92 46.92 0 0 0 563 93.84 L 563 46.92" fill="#ff5981"/><polygon points="656.83,0 656.83,93.83 563,93.83" fill="#ff4f79"/><polygon points="750.6600000000001,0 750.6600000000001,93.83 656.83,93.83" fill="#ffbecd"/><path d="M 750.67 0 A 93.83 93.83 0 0 1  844.5 93.83 L 750.67 0 A 93.83 93.83 0 0 0 844.5 93.83" fill="#ffa8bd"/><polygon points="844.5,0 938.33,93.83 844.5,93.83" fill="#294de3"/><rect x="938.33" y="0" width="93.83" height="93.83" fill="#ffd1dc"/><polygon points="1126,0 1126,93.83 1032.17,93.83" fill="#738bed"/><polygon points="0,93.83 93.83,93.83 0,187.66" fill="#ff678b"/><path d="M 93.83 187.66 A 93.83 93.83 0 0 0 187.66 93.83 L 93.83 93.83" fill="#f4f6fe"/><polygon points="281.5,93.83 281.5,187.66 187.67,187.66" fill="#a5b4f3"/><rect x="281.5" y="93.83333333333333" width="93.83333333333333" height="93.83333333333333" fill="#ffffff"/><polygon points="328.42,93.83 328.42,140.75 281.5,140.75" fill="#ffe4ea"/><polygon points="328.42,93.83 375.34000000000003,140.75 328.42,140.75" fill="#fcfdff"/><polygon points="281.5,140.75 328.42,140.75 328.42,187.67000000000002" fill="#adbbf4"/><polygon points="328.42,140.75 375.34000000000003,140.75 328.42,187.67000000000002" fill="#3d5ee6"/><path d="M 375.33 93.83 A 93.83 93.83 0 0 1 469.15999999999997 187.66 L 375.33 187.66" fill="#ffc5d3"/><polygon points="469.17,93.83 563,187.66 469.17,187.66" fill="#ff527b"/><rect x="563" y="93.83" width="93.83" height="93.83" fill="#ff547c"/><rect x="656.8333333333333" y="93.83333333333333" width="93.83333333333333" height="93.83333333333333" fill="#ffffff"/><polygon points="703.75,93.83 703.75,140.75 656.83,140.75" fill="#4766e7"/><polygon points="703.75,93.83 750.67,140.75 703.75,140.75" fill="#ff7495"/><polygon points="656.83,140.75 703.75,140.75 703.75,187.67000000000002" fill="#5f7aea"/><polygon points="703.75,140.75 750.67,140.75 703.75,187.67000000000002" fill="#ff87a3"/><rect x="750.67" y="93.83" width="93.83" height="93.83" fill="#ff6489"/><path d="M 844.5 93.83 A 93.83 93.83 0 0 1  938.33 187.66 L 844.5 93.83 A 93.83 93.83 0 0 0 938.33 187.66" fill="#8095ee"/><rect x="938.33" y="93.83" width="93.83" height="93.83" fill="#cad3f8"/><path d="M 1032.17 93.83 A 93.83 93.83 0 0 1  1126 187.66 L 1032.17 93.83 A 93.83 93.83 0 0 0 1126 187.66" fill="#647eeb"/><polygon points="0,187.67 93.83,187.67 93.83,281.5" fill="#ff8ea9"/><rect x="93.83" y="187.67" width="93.83" height="93.83" fill="#768ded"/><rect x="187.66666666666666" y="187.66666666666666" width="93.83333333333333" height="93.83333333333333" fill="#ffffff"/><path d="M 187.67 234.58999999999997 A 46.92 46.92 0 0 1 234.58999999999997 187.67 L 234.58999999999997 199.39999999999998 A 35.19 35.19 0 0 0 199.39999999999998 234.58999999999997" fill="#ff89a5"/><path d="M 234.58 187.67 A 46.92 46.92 0 0 1 281.5 234.58999999999997 L 269.77 234.58999999999997 A 35.19 35.19 0 0 0 234.58 199.39999999999998" fill="#dee4fb"/><path d="M 187.67 234.58 A 46.92 46.92 0 0 0 234.58999999999997 281.5 L 234.58999999999997 269.77 A 35.19 35.19 0 0 1 199.39999999999998 234.58" fill="#e3e8fb"/><path d="M 234.58 281.5 A 46.92 46.92 0 0 0 281.5 234.58 L 269.77 234.58 A 35.19 35.19 0 0 1 234.58 269.77" fill="#aab9f4"/><polygon points="281.5,187.67 375.33,187.67 375.33,281.5" fill="#e0e5fb"/><polygon points="375.33,187.67 469.15999999999997,187.67 375.33,281.5" fill="#cdd6f9"/><polygon points="469.17,187.67 563,187.67 563,281.5" fill="#ff8ca7"/><path d="M 563 187.67 A 93.83 93.83 0 0 1 656.83 281.5 L 563 281.5" fill="#ffeaef"/><rect x="656.83" y="187.67" width="93.83" height="93.83" fill="#ffa8bd"/><path d="M 750.67 187.67 A 93.83 93.83 0 0 1 844.5 281.5 L 750.67 281.5" fill="#274ce3"/><polygon points="844.5,187.67 938.33,281.5 844.5,281.5" fill="#ff557d"/><rect x="938.3333333333333" y="187.66666666666666" width="93.83333333333333" height="93.83333333333333" fill="#ffffff"/><path d="M 938.33 234.58999999999997 A 46.92 46.92 0 0 1  985.25 187.67 L 985.25 234.58999999999997" fill="#fff3f6"/><path d="M 985.25 187.67 A 46.92 46.92 0 0 1 1032.17 234.58999999999997 L 985.25 234.58999999999997" fill="#8a9ef0"/><path d="M 938.33 234.58 A 46.92 46.92 0 0 0 985.25 281.5 L 985.25 234.58" fill="#ffb2c5"/><path d="M 985.25 281.5 A 46.92 46.92 0 0 0 1032.17 234.58 L 985.25 234.58" fill="#ffcdd9"/><path d="M 1032.17 281.5 A 93.83 93.83 0 0 0 1126 187.67 L 1032.17 187.67" fill="#4867e7"/></g></svg>