<svg xmlns="http://www.w3.org/2000/svg" version="1.1" xmlns:xlink="http://www.w3.org/1999/xlink" xmlns:svgjs="http://svgjs.dev/svgjs" width="150" height="75" preserveAspectRatio="none" viewBox="0 0 150 75"><g mask="url(&quot;#SvgjsMask1026&quot;)" fill="none"><rect width="150" height="75" x="0" y="0" fill="rgba(133, 203, 204, 1)"></rect><path d="M0 49.94L10 46.97L20 50.13L30 57.54L40 54.73L50 58.24L60 52.93L70 55.95L80 59.62L90 53.09L100 49.7L110 41.93L120 39.01L130 39.45L140 44.05L150 36.13" stroke="rgba(0, 115, 255, 1)" stroke-width="2"></path><path d="M0 49.94L10 46.97L20 50.13L30 57.54L40 54.73L50 58.24L60 52.93L70 55.95L80 59.62L90 53.09L100 49.7L110 41.93L120 39.01L130 39.45L140 44.05L150 36.13L150 75L0 75z" fill="url(&quot;#SvgjsLinearGradient1027&quot;)"></path></g><defs><mask id="SvgjsMask1026"><rect width="150" height="75" fill="#ffffff"></rect></mask><linearGradient x1="50%" y1="0%" x2="50%" y2="100%" id="SvgjsLinearGradient1027"><stop stop-opacity="0.65" stop-color="rgba(0, 115, 255, 1)" offset="0"></stop><stop stop-opacity="0" stop-color="#e0eeff" offset="0.8"></stop></linearGradient></defs></svg>