<svg xmlns="http://www.w3.org/2000/svg" version="1.1" xmlns:xlink="http://www.w3.org/1999/xlink" xmlns:svgjs="http://svgjs.dev/svgjs" width="150" height="75" preserveAspectRatio="none" viewBox="0 0 150 75"><g mask="url(&quot;#SvgjsMask1152&quot;)" fill="none"><rect width="150" height="75" x="0" y="0" fill="rgba(151, 233, 255, 1)"></rect><path d="M0 38.48L10 35.52L20 44.73L30 37.79L40 39.92L50 45.55L60 51.14L70 46.63L80 39.05L90 40.23L100 39.16L110 43.65L120 48.13L130 46.98L140 48.73L150 52.23" stroke="rgba(0, 151, 255, 1)" stroke-width="2"></path><path d="M0 38.48L10 35.52L20 44.73L30 37.79L40 39.92L50 45.55L60 51.14L70 46.63L80 39.05L90 40.23L100 39.16L110 43.65L120 48.13L130 46.98L140 48.73L150 52.23L150 75L0 75z" fill="url(&quot;#SvgjsLinearGradient1153&quot;)"></path></g><defs><mask id="SvgjsMask1152"><rect width="150" height="75" fill="#ffffff"></rect></mask><linearGradient x1="50%" y1="0%" x2="50%" y2="100%" id="SvgjsLinearGradient1153"><stop stop-opacity="0.65" stop-color="rgba(0, 151, 255, 1)" offset="0"></stop><stop stop-opacity="0" stop-color="#e0f3ff" offset="0.8"></stop></linearGradient></defs></svg>